<!-- Generated by IcoMoon.io -->
<svg version="1.1" xmlns="http://www.w3.org/2000/svg" width="32" height="32" viewBox="0 0 32 32">
<title>facebook</title>
<path fill="#3c5a99" d="M16 0c8.837 0 16 7.163 16 16s-7.163 16-16 16c-8.837 0-16-7.163-16-16s7.163-16 16-16z"></path>
<path fill="#fff" d="M19.691 12.992h-2.539v-1.772c0-0.662 0.413-0.817 0.705-0.817s1.794 0 1.794 0v-2.924l-2.47-0.013c-2.741 0-3.369 2.18-3.369 3.578v1.948h-1.587v3.014h1.587c0 3.866 0 8.527 0 8.527h3.341c0 0 0-4.709 0-8.527h2.251l0.288-3.014z"></path>
</svg>
