<!-- Generated by IcoMoon.io -->
<svg version="1.1" xmlns="http://www.w3.org/2000/svg" width="32" height="32" viewBox="0 0 32 32">
<title>instagram</title>
<path fill="#000" d="M16 0c8.837 0 16 7.163 16 16s-7.163 16-16 16c-8.837 0-16-7.163-16-16s7.163-16 16-16z"></path>
<path fill="#000" opacity="0.3429999999999999" d="M16 0c8.837 0 16 7.163 16 16s-7.163 16-16 16c-8.837 0-16-7.163-16-16s7.163-16 16-16z"></path>
<path fill="#fff" d="M19.607 7.467c2.722 0 4.927 2.205 4.927 4.927v7.213c0 2.722-2.205 4.927-4.927 4.927h-7.213c-2.722 0-4.927-2.205-4.927-4.927v-7.213c0-2.722 2.205-4.927 4.927-4.927h7.213zM22.96 19.736v-7.385c0-1.808-1.464-3.272-3.267-3.272h-7.385c-1.803 0-3.272 1.464-3.272 3.272v7.385c0 1.803 1.468 3.267 3.272 3.267h7.385c1.803 0 3.267-1.464 3.267-3.267zM16 11.614c2.444 0 4.429 1.98 4.429 4.429 0 2.444-1.985 4.429-4.429 4.429-2.449 0-4.429-1.985-4.429-4.429 0-2.449 1.98-4.429 4.429-4.429zM16 18.913c1.583 0 2.87-1.287 2.87-2.87 0-1.588-1.287-2.87-2.87-2.87-1.588 0-2.87 1.282-2.87 2.87 0 1.583 1.282 2.87 2.87 2.87zM20.578 10.413c0.569 0 1.028 0.464 1.028 1.033s-0.459 1.028-1.028 1.028c-0.569 0-1.033-0.459-1.033-1.028s0.464-1.033 1.033-1.033z"></path>
</svg>
