<!-- Generated by IcoMoon.io -->
<svg version="1.1" xmlns="http://www.w3.org/2000/svg" width="32" height="32" viewBox="0 0 32 32">
<title>detayli-bilgi</title>
<path fill="#fff" d="M17.714 11.657c0.343-0.343 0.914-0.343 1.257 0v0l3.543 3.657c0 0 0 0 0 0 0.114 0.114 0.229 0.229 0.229 0.457 0 0 0 0 0 0s0 0.114 0 0.114v-0.114c0 0 0 0 0 0.114v0c0 0 0 0 0 0s0 0 0 0.114c0 0 0 0 0 0.114 0 0 0 0 0 0 0 0.114-0.114 0.343-0.229 0.457v0l-3.543 3.657c-0.343 0.343-0.914 0.343-1.257 0s-0.343-0.914 0-1.257v0l2.057-2.057h-8.571c-0.457 0-0.8-0.343-0.914-0.8v-0.114c0-0.457 0.457-0.914 0.914-0.914v0h8.571l-2.057-2.057c-0.343-0.343-0.343-0.914 0-1.371v0z"></path>
</svg>
