<!-- Generated by IcoMoon.io -->
<svg version="1.1" xmlns="http://www.w3.org/2000/svg" width="32" height="32" viewBox="0 0 32 32">
<title>go-thick</title>
<path fill="#fff" d="M16.142 0.006c-0.048-0.001-0.104-0.001-0.16-0.001-8.843 0-16.011 7.168-16.011 16.011s7.168 16.011 16.011 16.011c8.843 0 16.011-7.168 16.011-16.011 0-7.367-4.975-13.571-11.749-15.438-1.305-0.359-2.678-0.558-4.094-0.573zM16.115 1.899c7.74 0.074 13.985 6.365 13.985 14.115 0 7.796-6.32 14.116-14.116 14.116s-14.116-6.32-14.116-14.116c0-1.298 0.175-2.554 0.503-3.748 1.669-5.981 7.157-10.368 13.669-10.368 0.026 0 0.052 0 0.078 0zM22.533 15.111c-0.043 0-0.043-0.043-0.087-0.043l-8.768-5.284c-0.246-0.158-0.544-0.254-0.865-0.259-0.681 0.045-1.215 0.607-1.215 1.293 0 0.078 0.007 0.155 0.020 0.23l-0.001 10.387c-0.009 0.058-0.014 0.125-0.014 0.194 0 0.706 0.553 1.283 1.249 1.322 0.34-0.006 0.653-0.101 0.921-0.264l8.37-5.062c0.539-0.239 0.924-0.739 0.996-1.335 0.002-0.026 0.002-0.047 0.002-0.068 0-0.464-0.24-0.872-0.603-1.106zM13.717 20.251v-8.082l6.939 4.098z"></path>
</svg>
