<!-- Generated by IcoMoon.io -->
<svg version="1.1" xmlns="http://www.w3.org/2000/svg" width="32" height="32" viewBox="0 0 32 32">
<title>info-icon</title>
<path fill="#194b93" d="M16 0c8.837 0 16 7.163 16 16s-7.163 16-16 16v0c-8.837 0-16-7.163-16-16s7.163-16 16-16v0zM16 1.731c-0.058-0.001-0.126-0.001-0.195-0.001-7.881 0-14.269 6.389-14.269 14.269s6.389 14.269 14.269 14.269c0.069 0 0.137-0 0.205-0.001l-0.010 0c7.761-0.155 13.993-6.483 13.993-14.267s-6.232-14.112-13.979-14.266l-0.014-0zM16.432 12.541c0.419 0 0.768 0.296 0.848 0.691l0.016 0.173v7.784h1.733v1.731h-6.059v-1.733h2.595v-6.915h-2.595v-1.728h3.459zM16 9.080c0.018-0.001 0.038-0.001 0.059-0.001 0.717 0 1.299 0.581 1.299 1.299s-0.581 1.299-1.299 1.299c-0.021 0-0.041-0-0.062-0.001l0.003 0c-0.691-0.032-1.24-0.601-1.24-1.297s0.548-1.265 1.237-1.297l0.003-0z"></path>
</svg>
