<!-- Generated by IcoMoon.io -->
<svg version="1.1" xmlns="http://www.w3.org/2000/svg" width="30" height="32" viewBox="0 0 30 32">
<title>pin</title>
<path fill="#194b93" d="M14.853 3.040c-4.75 0-8.613 3.864-8.613 8.613 0 7.014 6.999 15.213 8.613 17.009 1.614-1.797 8.613-10 8.613-17.009 0-4.75-3.864-8.613-8.613-8.613zM14.853 29.787c-0.124 0-0.243-0.051-0.328-0.141-0.375-0.394-9.192-9.746-9.192-17.992 0-5.25 4.27-9.52 9.52-9.52s9.52 4.27 9.52 9.52c0 8.246-8.816 17.598-9.192 17.992-0.086 0.090-0.204 0.141-0.328 0.141z"></path>
<path d="M14.853 8.48c-1.75 0-3.173 1.423-3.173 3.173s1.423 3.173 3.173 3.173c1.749 0 3.173-1.423 3.173-3.173s-1.424-3.173-3.173-3.173zM14.853 15.733c-2.249 0-4.080-1.831-4.080-4.080s1.831-4.080 4.080-4.080c2.25 0 4.080 1.831 4.080 4.080s-1.83 4.080-4.080 4.080z"></path>
</svg>
