<!-- Generated by IcoMoon.io -->
<svg version="1.1" xmlns="http://www.w3.org/2000/svg" width="32" height="32" viewBox="0 0 32 32">
<title>profile</title>
<path fill="#194b93" d="M11.429 15.2h9.143c3.598 0 6.514 2.917 6.514 6.514v6.514h-22.171v-6.514c0-3.598 2.917-6.514 6.514-6.514zM25.486 21.714c0-2.714-2.2-4.914-4.914-4.914h-9.143c-2.714 0-4.914 2.2-4.914 4.914v4.914h18.971v-4.914zM16 13.371c-2.967 0-5.371-2.405-5.371-5.371s2.405-5.371 5.371-5.371c2.967 0 5.371 2.405 5.371 5.371s-2.405 5.371-5.371 5.371zM16 11.771c2.083 0 3.771-1.689 3.771-3.771s-1.689-3.771-3.771-3.771c-2.083 0-3.771 1.689-3.771 3.771s1.689 3.771 3.771 3.771z"></path>
</svg>
