<!-- Generated by IcoMoon.io -->
<svg version="1.1" xmlns="http://www.w3.org/2000/svg" width="32" height="32" viewBox="0 0 32 32">
<title>search</title>
<path fill="#194b93" d="M14.857 3.429c6.312 0 11.429 5.117 11.429 11.429 0 0.005 0 0.011 0 0.018 0 2.748-0.974 5.268-2.595 7.235l0.016-0.019 4.335 4.334-1.617 1.617-4.334-4.335c-1.947 1.606-4.468 2.579-7.215 2.579-0.006 0-0.012 0-0.019 0h0.001c-6.312 0-11.429-5.117-11.429-11.429s5.117-11.429 11.429-11.429zM14.857 5.714c-5.049 0-9.143 4.093-9.143 9.143s4.093 9.143 9.143 9.143v0c5.049 0 9.143-4.093 9.143-9.143s-4.093-9.143-9.143-9.143v0z"></path>
</svg>
