<!-- Generated by IcoMoon.io -->
<svg version="1.1" xmlns="http://www.w3.org/2000/svg" width="32" height="32" viewBox="0 0 32 32">
<title>shopping-bag</title>
<path fill="#194b93" d="M20.849 10.629c-0.382-2.334-2.408-4.114-4.849-4.114s-4.467 1.781-4.849 4.114h9.699zM9.534 10.629c0.394-3.22 3.139-5.714 6.466-5.714s6.071 2.494 6.466 5.714h8.288l-3.552 13.431c-0.472 1.784-2.085 3.026-3.93 3.026h-14.482c-1.838 0-3.448-1.233-3.925-3.008l-3.622-13.449h8.293zM3.33 12.229l3.079 11.433c0.29 1.076 1.266 1.824 2.38 1.824h14.482c1.119 0 2.097-0.753 2.383-1.835l3.021-11.422h-25.346z"></path>
</svg>
