<!-- Generated by IcoMoon.io -->
<svg version="1.1" xmlns="http://www.w3.org/2000/svg" width="53" height="32" viewBox="0 0 53 32">
<title>truck</title>
<path fill="#194b93" d="M51.009 26.353h-5.764c-0.462-2.164-2.357-3.764-4.627-3.764s-4.165 1.6-4.621 3.733l-0.006 0.031h-3.875v-18.823h8.030l5.383 7.152c0.088 0.118 0.202 0.212 0.333 0.278l5.146 2.563v8.83zM40.618 30.118c-1.563 0-2.834-1.267-2.834-2.824s1.272-2.823 2.834-2.823c1.562 0 2.834 1.267 2.834 2.823 0 1.558-1.272 2.824-2.834 2.824zM12.28 22.588c-0 0-0 0-0.001 0-2.27 0-4.165 1.6-4.621 3.734l-0.006 0.031h-5.764v-24.47h28.338v24.47h-13.321c-0.461-2.165-2.357-3.765-4.626-3.765h-0zM12.28 30.118c-1.563 0-2.834-1.267-2.834-2.824s1.271-2.823 2.834-2.823c1.562 0 2.834 1.267 2.834 2.823 0 1.558-1.271 2.824-2.834 2.824zM52.376 16.099l-5.468-2.724-5.533-7.351c-0.175-0.23-0.448-0.377-0.756-0.377h-8.503v-4.707c0.001-0.519-0.423-0.94-0.944-0.94h-30.228c-0.522 0-0.944 0.422-0.944 0.941v26.353c0 0.521 0.422 0.942 0.944 0.942h6.71c0.461 2.164 2.356 3.764 4.626 3.764 0 0 0 0 0.001 0h-0c0 0 0 0 0 0 2.269 0 4.165-1.6 4.621-3.733l0.006-0.031h19.085c0.461 2.164 2.356 3.764 4.626 3.764 0 0 0 0 0.001 0h-0c0 0 0 0 0.001 0 2.269 0 4.165-1.6 4.621-3.733l0.006-0.031h6.709c0.522 0 0.944-0.421 0.944-0.942v-10.353c0-0.357-0.202-0.682-0.522-0.842z"></path>
</svg>
